<?xml version="1.0" encoding="utf-8"?>
<!-- Generator: Adobe Illustrator 27.5.0, SVG Export Plug-In . SVG Version: 6.00 Build 0)  -->
<svg version="1.1" xmlns="http://www.w3.org/2000/svg" xmlns:xlink="http://www.w3.org/1999/xlink" x="0px" y="0px"
	 viewBox="0 0 3710 3710" style="enable-background:new 0 0 3710 3710;" xml:space="preserve">
<g id="Background">
	<g>
		<g>
			<rect style="fill:#FFFFFF;" width="3710" height="3710"/>
		</g>
	</g>
</g>
<g id="Illustration">
	<g>
		<path style="fill:#F4F7FA;" d="M3179.458,1255.063c74.925-682.421-586.677-919.506-1055.702-744.778
			c-472.83,176.146-582.448-115.848-1247.321-32.42C203.217,562.34,545.021,1619.123,545.021,1619.123
			s107.119,918.939,234.028,1342.518c126.221,421.288,1334.43,268.868,1628.345,256.296c292.224-12.5,546.15,11.627,800.397-450.944
			C3461.572,2305.266,3104.781,1935.222,3179.458,1255.063z"/>
		<path style="opacity:0.3;fill:#BFC8D6;" d="M2172.705,1005.712l-51.794,3.494c-5.945-23.111-13.754-45.437-23.443-66.721
			l42.969-28.837c11.724-7.868,14.736-23.79,6.731-35.568l-50.117-73.737c-8.024-11.804-24.06-15.015-35.821-7.165l-43.545,29.062
			c-16.537-16.945-34.501-32.485-53.718-46.403l22.961-47.147c6.192-12.713,0.773-28.153-12.106-34.489l-80.69-39.705
			c-12.927-6.361-28.457-1.2-34.683,11.537l-23.122,47.298c-22.614-6.58-46.017-11.191-69.963-13.852l-4.025-53.042
			c-1.081-14.24-13.617-25.096-28.008-24.247l-90.191,5.319c-14.453,0.853-25.298,13.122-24.214,27.403l4.037,53.199
			c-23.487,5.552-46.179,12.991-67.825,22.309l-30.419-44.351c-8.202-11.961-24.616-15.245-36.665-7.334l-75.485,49.572
			c-12.094,7.942-15.221,24.097-6.979,36.076l30.521,44.36c-17.335,16.379-33.171,34.247-47.365,53.368l-48.837-23.592
			c-13.223-6.388-29.12-1.103-35.503,11.81l-39.957,80.843c-6.398,12.942-0.831,28.598,12.429,34.961l48.479,23.268
			c-6.616,22.721-11.147,46.249-13.654,70.324l-53.677,3.621c-14.693,0.991-25.727,13.473-24.634,27.879l6.836,90.085
			c1.093,14.405,13.897,25.243,28.587,24.209l53.239-3.747c6.003,23.625,13.984,46.415,23.892,68.131l-43.798,29.232
			c-12.161,8.116-15.307,24.372-7.021,36.301l51.747,74.523c8.265,11.903,24.795,14.953,36.916,6.818l43.455-29.162
			c17.053,17.269,35.621,33.004,55.447,47.061l-22.712,46.459c-6.349,12.984-0.814,28.543,12.352,34.743l82.184,38.706
			c13.119,6.178,28.865,0.674,35.177-12.285l22.414-46.024c23.189,6.422,47.167,10.754,71.656,13.064l3.86,50.874
			c1.084,14.282,13.668,24.937,28.099,23.799l90.055-7.105c14.37-1.134,25.137-13.597,24.056-27.837l-3.849-50.724
			c23.69-6.017,46.528-13.934,68.24-23.769l28.75,41.784c8.083,11.75,24.232,14.73,36.063,6.662l73.856-50.358
			c11.788-8.038,14.819-24.06,6.773-35.791l-28.831-42.036c17.074-16.659,32.661-34.748,46.539-54.089l46.084,22.119
			c12.824,6.155,28.208,0.779,34.367-12.003l38.463-79.843c6.144-12.753,0.759-28.096-12.031-34.275l-46.175-22.307
			c6.288-22.515,10.571-45.796,12.836-69.607l51.371-3.616c14.135-0.996,24.721-13.248,23.649-27.367l-6.7-88.299
			C2199.168,1015.431,2186.843,1004.758,2172.705,1005.712z M1705.836,847.05c145.155-9.219,270.998,99.459,281.867,242.692
			c10.869,143.231-97.256,268.042-242.292,278.83c-145.913,10.854-273.757-97.687-284.746-242.492
			C1449.676,981.274,1559.802,856.325,1705.836,847.05z"/>
		<g>
			<g>
				<defs>
					<path id="SVGID_1_" d="M1966.863,2752.272c-156.261-210.359-87.3-535.702,36.431-591.128
						c64.355-28.829,116.895,27.294,179.442-11.771c69.299-43.282,39.058-133.569,97.146-293.684
						c30.013-82.728,84.439-232.745,189.838-259.458c104.524-26.49,154.967,94.695,269.003,72.41
						c107.829-21.072,103.707-137.433,246.752-200.155c13.306-5.834,163.816-69.668,247.261-0.351
						c84.777,70.422,70.389,253.403-12.901,346.045c-75.671,84.167-185.976,69.031-197.418,128.549
						c-12.608,65.589,117.214,105.455,110.731,174.077c-9.37,99.189-287.448,88.256-338.257,234.06
						c-29.877,85.738,52.884,127.952,39.002,243.473c-17.916,149.097-177.77,261.835-300.176,305.208
						C2356.324,2962.404,2102.304,2934.602,1966.863,2752.272z"/>
				</defs>
				
					<linearGradient id="SVGID_00000110464036546343730480000000211266950303191464_" gradientUnits="userSpaceOnUse" x1="2687.2415" y1="2182.4851" x2="5410.0903" y2="2210.4836">
					<stop  offset="0" style="stop-color:#AA80F9"/>
					<stop  offset="0.9964" style="stop-color:#6165D7"/>
				</linearGradient>
				
					<use xlink:href="#SVGID_1_"  style="overflow:visible;fill:url(#SVGID_00000110464036546343730480000000211266950303191464_);"/>
				<clipPath id="SVGID_00000074430081467596950480000003147699773881457587_">
					<use xlink:href="#SVGID_1_"  style="overflow:visible;"/>
				</clipPath>
				<g style="clip-path:url(#SVGID_00000074430081467596950480000003147699773881457587_);">
					<path style="fill:#FFFFFF;" d="M2028.097,2921.611l-7.07-4.36c168.804-273.752,343.267-522.292,518.548-738.717
						c140.257-173.178,281.351-326.306,419.364-455.128c235.19-219.527,382.011-293.329,383.467-294.05l3.682,7.445
						c-1.447,0.717-147.499,74.2-381.921,293.087C2747.789,1931.928,2409.745,2302.684,2028.097,2921.611z"/>
					<path style="fill:#FFFFFF;" d="M2937.133,1745.249c31.463-255.504,172.046-428.084,173.463-429.797l6.402,5.292
						c-1.403,1.695-140.466,172.522-171.62,425.521L2937.133,1745.249z"/>
					<path style="fill:#FFFFFF;" d="M2513.823,2209.053c-54.024-275.186-39.18-453.799-17.213-555.179
						c23.928-110.426,60.346-154.915,61.884-156.755l6.376,5.325c-0.367,0.44-36.908,45.293-60.337,154.095
						c-21.646,100.533-36.191,277.719,17.442,550.914L2513.823,2209.053z"/>
					<path style="fill:#FFFFFF;" d="M2169.709,2688.316c-200.158-447.557-125.7-726.885-124.926-729.653l7.998,2.24
						c-0.194,0.695-19.277,73.159-12.063,201.691c6.355,113.18,35.207,295.673,136.571,522.331L2169.709,2688.316z"/>
					<path style="fill:#FFFFFF;" d="M2654.893,2168.722c-28.5-3.823-57.269-9.26-86.132-16.595l2.046-8.05
						c188.593,47.926,374.173,14.112,496.638-22.698c132.758-39.905,221.892-91.759,222.774-92.279l4.206,7.165
						c-0.894,0.524-90.885,52.881-224.587,93.07C2965.079,2160.821,2814.458,2190.127,2654.893,2168.722z"/>
					<path style="fill:#FFFFFF;" d="M2280.395,2609.083c-15.388-2.064-30.908-4.696-46.573-7.951l1.691-8.132
						c198.628,41.269,376.514-18.446,490.774-75.805c123.898-62.198,201.648-135.007,202.42-135.735l5.704,6.039
						c-0.78,0.736-79.42,74.38-204.398,137.12C2623.572,2578.053,2462.406,2633.5,2280.395,2609.083z"/>
				</g>
			</g>
		</g>
		<g>
			<g>
				<defs>
					<path id="SVGID_00000178184684879130907430000004703389636304725420_" d="M1299.46,2428.586
						c-259.141,38.92-513.783-174.998-504.481-310.255c4.838-70.351,79.08-90.309,74.035-163.881
						c-5.59-81.513-99.488-97.305-213.447-223.893c-58.88-65.405-165.652-184.01-139.637-289.583
						c25.8-104.696,156.467-92.194,190.453-203.306c32.136-105.063-72.482-156.171-60.53-311.905
						c1.112-14.486,15.594-177.331,116.02-218.352c102.027-41.677,256.723,57.106,299.286,174.188
						c38.669,106.372-26.583,196.585,20.554,234.684c51.945,41.984,148.201-53.818,205.704-15.813
						c83.117,54.934-57.358,295.171,47.398,408.602c61.6,66.701,137.787,13.532,233.193,80.131
						c123.136,85.955,147.412,280.052,128.097,408.471C1668.113,2183.78,1524.072,2394.851,1299.46,2428.586z"/>
				</defs>
				
					<linearGradient id="SVGID_00000034064515827938831900000010222324663063807393_" gradientUnits="userSpaceOnUse" x1="1198.125" y1="1567.2526" x2="3514.0464" y2="1591.0667">
					<stop  offset="0" style="stop-color:#FF9085"/>
					<stop  offset="1" style="stop-color:#FB6FBB"/>
				</linearGradient>
				
					<use xlink:href="#SVGID_00000178184684879130907430000004703389636304725420_"  style="overflow:visible;fill:url(#SVGID_00000034064515827938831900000010222324663063807393_);"/>
				<clipPath id="SVGID_00000011728724333573667790000005099478150862511751_">
					<use xlink:href="#SVGID_00000178184684879130907430000004703389636304725420_"  style="overflow:visible;"/>
				</clipPath>
				<g style="clip-path:url(#SVGID_00000011728724333573667790000005099478150862511751_);">
					<path style="fill:#FFFFFF;" d="M1477.695,2454.221l-7.173,4.187c-162.146-277.748-299.381-548.627-407.894-805.119
						c-86.828-205.24-155.57-401.786-204.313-584.178c-83.064-310.817-79.113-475.096-79.064-476.719l8.302,0.253
						c-0.047,1.614-3.919,165.064,78.942,474.902C942.978,1353.536,1111.099,1826.262,1477.695,2454.221z"/>
					<path style="fill:#FFFFFF;" d="M867.33,1098.629C656.672,950.658,570.525,745.412,569.679,743.355l7.681-3.159
						c0.836,2.036,86.151,205.116,294.744,351.635L867.33,1098.629z"/>
					<path style="fill:#FFFFFF;" d="M1077.443,1690.371c-268.245-81.796-418.873-178.926-497.997-246.006
						c-86.184-73.066-108.308-126.133-109.208-128.355l7.698-3.121c0.216,0.531,22.603,53.878,107.589,125.74
						c78.528,66.399,228.037,162.595,494.341,243.798L1077.443,1690.371z"/>
					<path style="fill:#FFFFFF;" d="M1338.457,2219.501c-489.1-33.94-700.553-231.058-702.631-233.044l5.74-6.004
						c0.522,0.499,55.487,51.43,172.3,105.534c102.862,47.64,277.471,108.039,525.166,125.229L1338.457,2219.501z"/>
					<path style="fill:#FFFFFF;" d="M1108.224,1546.913c-16.782,23.35-35.114,46.178-55.167,68.197l-6.141-5.593
						c131.018-143.87,188.49-323.537,213.625-448.92c27.247-135.922,23.424-238.971,23.38-239.994l8.301-0.341
						c0.041,1.035,3.904,105.078-23.536,241.966C1247.185,1269.484,1202.182,1416.182,1108.224,1546.913z"/>
					<path style="fill:#FFFFFF;" d="M1320.615,2084.554c-9.061,12.607-18.686,25.065-28.928,37.356l-6.38-5.318
						c129.865-155.857,160.862-340.92,164.004-468.731c3.406-138.592-24.263-241.455-24.542-242.478l8.013-2.192
						c0.282,1.035,28.27,105.075,24.834,244.875C1454.688,1767.131,1427.792,1935.432,1320.615,2084.554z"/>
				</g>
			</g>
		</g>
		<g>
			<g>
				<path style="fill:#BFC8D6;" d="M3223.28,3028.467l-2624.454-22.685v67.122c0,18.219,11.447,33.709,26.95,36.47l742.117,132.176
					c8.807,1.569,17.739,1.985,26.626,1.24l1800.241-150.701c16.072-1.345,28.52-16.885,28.52-35.603V3028.467z"/>
				<g>
					<path style="fill:#BFC8D6;" d="M2257.477,2920.901L589.425,3043.693c-29.848,2.197-54.118-21.151-54.118-52.155V1749.387
						c0-31.004,24.269-56.138,54.118-56.138l59.011,34.012l1609.041-34.012c24.591,0,44.473,22.72,44.473,50.748v1122.882
						C2301.951,2894.906,2282.068,2919.091,2257.477,2920.901z"/>
					<path style="fill:#FFFFFF;" d="M2284.074,2920.901L616.023,3043.693c-29.849,2.197-54.118-21.151-54.118-52.155V1749.387
						c0-31.004,24.269-56.138,54.118-56.138h1668.052c24.592,0,44.473,22.72,44.473,50.748v1122.882
						C2328.548,2894.906,2308.666,2919.091,2284.074,2920.901z"/>
					<path style="fill:#D8DEE8;" d="M2232.11,2841.736L678.494,2948.397c-24.29,1.667-44.03-17.496-44.03-42.807V1818.086
						c0-25.311,19.739-45.915,44.03-46.02l1553.616-6.698c20.285-0.088,36.694,18.53,36.694,41.584v990.522
						C2268.804,2820.528,2252.396,2840.344,2232.11,2841.736z"/>
					<g>
						<polygon style="fill:#FFFFFF;" points="1229.508,1874.128 810.224,1875.22 810.162,1835.244 1229.448,1835.38 						"/>
						<polygon style="fill:#FFFFFF;" points="1426.946,1862.554 1330.087,1862.724 1330.045,1835.413 1426.904,1835.444 						"/>
						<polygon style="fill:#FFFFFF;" points="1427.004,1900.221 1330.146,1900.672 1330.104,1873.36 1426.962,1873.111 						"/>
						<polygon style="fill:#FFFFFF;" points="1909.689,1897.978 1533.922,1899.724 1533.881,1872.837 1909.649,1871.872 						"/>
						<polygon style="fill:#FFFFFF;" points="1971.363,1933.785 1599.334,1936.59 1599.293,1909.838 1971.323,1907.807 						"/>
						<polygon style="fill:#FFFFFF;" points="1971.419,1969.879 1599.392,1973.759 1599.351,1947.007 1971.379,1943.901 						"/>
						<polygon style="fill:#FFFFFF;" points="1971.475,2005.972 1599.449,2010.928 1599.408,1984.176 1971.435,1979.994 						"/>
						<polygon style="fill:#FFFFFF;" points="1427.062,1937.889 1330.205,1938.619 1330.162,1911.307 1427.02,1910.778 						"/>
						<polygon style="fill:#FFFFFF;" points="1427.12,1975.556 1330.263,1976.566 1330.221,1949.254 1427.078,1948.445 						"/>
						<polygon style="fill:#FFFFFF;" points="1427.179,2013.223 1330.322,2014.513 1330.28,1987.201 1427.137,1986.112 						"/>
						<polygon style="fill:#FFFFFF;" points="1427.237,2050.89 1330.381,2052.46 1330.339,2025.148 1427.195,2023.779 						"/>
						<polygon style="fill:#FFFFFF;" points="1686.78,2046.682 1448.373,2050.547 1448.331,2023.481 1686.739,2020.112 						"/>
						<polygon style="fill:#FFFFFF;" points="1427.295,2088.557 1330.439,2090.407 1330.397,2063.095 1427.253,2061.447 						"/>
						<polygon style="fill:#FFFFFF;" points="1427.353,2126.224 1330.498,2128.354 1330.456,2101.042 1427.311,2099.114 						"/>
						<polygon style="fill:#FFFFFF;" points="1427.411,2163.891 1330.557,2166.302 1330.514,2138.99 1427.37,2136.781 						"/>
						<polygon style="fill:#FFFFFF;" points="1798.535,2081.465 1534.211,2086.514 1534.169,2059.626 1798.494,2055.127 						"/>
						<polygon style="fill:#FFFFFF;" points="1935.912,2115.038 1599.622,2122.435 1599.58,2095.683 1935.872,2088.986 						"/>
						<polygon style="fill:#FFFFFF;" points="1935.968,2151.235 1599.679,2159.604 1599.638,2132.852 1935.928,2125.183 						"/>
						<polygon style="fill:#FFFFFF;" points="1427.47,2201.558 1330.615,2204.248 1330.573,2176.937 1427.428,2174.448 						"/>
						<polygon style="fill:#FFFFFF;" points="1427.528,2239.225 1330.674,2242.196 1330.632,2214.884 1427.486,2212.115 						"/>
						<polygon style="fill:#FFFFFF;" points="1427.586,2276.892 1330.733,2280.143 1330.69,2252.831 1427.544,2249.782 						"/>
						<polygon style="fill:#FFFFFF;" points="1427.644,2314.559 1330.791,2318.09 1330.749,2290.778 1427.603,2287.449 						"/>
						<polygon style="fill:#FFFFFF;" points="1427.703,2352.226 1330.85,2356.037 1330.808,2328.725 1427.661,2325.116 						"/>
						<polygon style="fill:#FFFFFF;" points="1427.761,2389.894 1330.908,2393.984 1330.866,2366.672 1427.719,2362.783 						"/>
						<polygon style="fill:#FFFFFF;" points="1427.819,2427.561 1330.967,2431.931 1330.925,2404.619 1427.777,2400.45 						"/>
						<polygon style="fill:#FFFFFF;" points="1427.877,2465.228 1331.026,2469.878 1330.984,2442.566 1427.835,2438.117 						"/>
						<polygon style="fill:#FFFFFF;" points="1427.935,2502.895 1331.084,2507.825 1331.042,2480.513 1427.894,2475.784 						"/>
						<polygon style="fill:#FFFFFF;" points="1427.994,2540.562 1331.143,2545.772 1331.101,2518.46 1427.952,2513.451 						"/>
						<polygon style="fill:#FFFFFF;" points="1428.052,2578.229 1331.202,2583.719 1331.16,2556.408 1428.01,2551.118 						"/>
						<polygon style="fill:#FFFFFF;" points="1428.11,2615.896 1331.26,2621.667 1331.218,2594.355 1428.068,2588.786 						"/>
						<polygon style="fill:#FFFFFF;" points="1428.168,2653.563 1331.319,2659.614 1331.277,2632.302 1428.126,2626.453 						"/>
						<polygon style="fill:#FFFFFF;" points="1428.226,2691.23 1331.378,2697.561 1331.335,2670.249 1428.185,2664.12 						"/>
						<polygon style="fill:#FFFFFF;" points="1428.285,2728.897 1331.436,2735.508 1331.394,2708.196 1428.243,2701.787 						"/>
						<polygon style="fill:#FFFFFF;" points="1428.343,2766.564 1331.495,2773.455 1331.453,2746.143 1428.301,2739.454 						"/>
						<polygon style="fill:#FFFFFF;" points="1428.401,2804.231 1331.554,2811.402 1331.511,2784.09 1428.359,2777.121 						"/>
						<polygon style="fill:#FFFFFF;" points="1428.459,2841.898 1331.612,2849.349 1331.57,2822.037 1428.417,2814.788 						"/>
						<polygon style="fill:#FFFFFF;" points="1711.583,1862.054 1447.424,1862.518 1447.382,1835.451 1711.542,1835.536 						"/>
						<polygon style="fill:#FFFFFF;" points="1910.811,2623.41 1535.077,2646.884 1535.035,2619.996 1910.77,2597.304 						"/>
						<polygon style="fill:#FFFFFF;" points="1972.479,2655.654 1600.483,2679.97 1600.442,2653.218 1972.439,2629.676 						"/>
						<polygon style="fill:#FFFFFF;" points="1972.535,2691.747 1600.541,2717.139 1600.5,2690.387 1972.495,2665.77 						"/>
						<polygon style="fill:#FFFFFF;" points="2132.892,2716.435 1770.531,2742.217 1770.49,2715.819 2132.852,2690.791 						"/>
						<polygon style="fill:#FFFFFF;" points="2132.947,2752.065 1770.588,2778.895 1770.547,2752.497 2132.907,2726.421 						"/>
						<polygon style="fill:#FFFFFF;" points="2133.002,2787.695 1770.644,2815.573 1770.604,2789.174 2132.962,2762.051 						"/>
						<polygon style="fill:#FFFFFF;" points="1712.722,2598.938 1448.587,2614.676 1448.545,2587.608 1712.681,2572.42 						"/>
						<polygon style="fill:#FFFFFF;" points="1910.194,2224.422 1534.442,2235.946 1534.4,2209.058 1910.153,2198.316 						"/>
						<polygon style="fill:#FFFFFF;" points="1971.865,2258.626 1599.851,2271.111 1599.81,2244.359 1971.825,2232.648 						"/>
						<polygon style="fill:#FFFFFF;" points="1971.921,2294.719 1599.909,2308.28 1599.868,2281.528 1971.881,2268.742 						"/>
						<polygon style="fill:#FFFFFF;" points="1971.977,2330.813 1599.966,2345.449 1599.925,2318.697 1971.937,2304.835 						"/>
						<polygon style="fill:#FFFFFF;" points="1687.293,2378.932 1448.896,2389.001 1448.854,2361.935 1687.252,2352.362 						"/>
						<polygon style="fill:#FFFFFF;" points="1799.044,2410.809 1534.73,2422.736 1534.689,2395.848 1799.003,2384.471 						"/>
						<polygon style="fill:#FFFFFF;" points="1936.415,2440.809 1600.139,2456.956 1600.097,2430.204 1936.375,2414.757 						"/>
						<polygon style="fill:#FFFFFF;" points="1936.471,2477.006 1600.196,2494.125 1600.155,2467.373 1936.431,2450.954 						"/>
						<polygon style="fill:#FFFFFF;" points="2011.075,2509.191 1678.848,2527.066 1678.807,2500.477 2011.035,2483.295 						"/>
						<polygon style="fill:#FFFFFF;" points="2011.131,2545.173 1678.905,2564.007 1678.864,2537.419 2011.091,2519.276 						"/>
						<polygon style="fill:#FFFFFF;" points="1712.095,2193.652 1447.947,2200.989 1447.905,2173.922 1712.054,2167.134 						"/>
						<polygon style="fill:#FFFFFF;" points="1229.601,1934.671 989.614,1936.395 989.553,1896.944 1229.542,1895.923 						"/>
						<polygon style="fill:#FFFFFF;" points="927.541,1936.841 972.742,1936.516 972.68,1897.016 927.48,1897.208 						"/>
						<polygon style="fill:#FFFFFF;" points="1229.688,1990.371 989.701,1993.106 989.64,1953.655 1229.628,1951.623 						"/>
						<polygon style="fill:#FFFFFF;" points="927.629,1993.813 972.829,1993.298 972.768,1953.798 927.568,1954.18 						"/>
						<polygon style="fill:#FFFFFF;" points="1229.774,2046.071 989.789,2049.816 989.728,2010.365 1229.714,2007.323 						"/>
						<polygon style="fill:#FFFFFF;" points="927.717,2050.785 972.917,2050.08 972.856,2010.579 927.656,2011.152 						"/>
						<polygon style="fill:#FFFFFF;" points="1230.385,2441.443 811.128,2460.52 811.067,2420.544 1230.325,2402.695 						"/>
						<polygon style="fill:#FFFFFF;" points="1230.478,2501.987 990.506,2514.004 990.445,2474.553 1230.418,2463.239 						"/>
						<polygon style="fill:#FFFFFF;" points="928.438,2517.113 973.635,2514.849 973.574,2475.349 928.377,2477.48 						"/>
						<polygon style="fill:#FFFFFF;" points="1230.564,2557.686 990.594,2570.715 990.533,2531.264 1230.505,2518.939 						"/>
						<polygon style="fill:#FFFFFF;" points="928.526,2574.085 973.723,2571.631 973.662,2532.131 928.465,2534.452 						"/>
						<polygon style="fill:#FFFFFF;" points="1230.651,2613.386 990.682,2627.426 990.621,2587.975 1230.591,2574.638 						"/>
						<polygon style="fill:#FFFFFF;" points="928.614,2631.057 973.811,2628.413 973.75,2588.912 928.553,2591.424 						"/>
						<polygon style="fill:#FFFFFF;" points="1229.86,2102.148 810.587,2110.469 810.526,2070.493 1229.8,2063.401 						"/>
						<polygon style="fill:#FFFFFF;" points="1229.954,2162.692 989.972,2168.553 989.911,2129.102 1229.894,2123.944 						"/>
						<polygon style="fill:#FFFFFF;" points="927.902,2170.069 973.101,2168.965 973.04,2129.465 927.84,2130.436 						"/>
						<polygon style="fill:#FFFFFF;" points="1230.04,2218.392 990.06,2225.264 989.999,2185.813 1229.98,2179.644 						"/>
						<polygon style="fill:#FFFFFF;" points="927.99,2227.041 973.188,2225.747 973.127,2186.247 927.928,2187.408 						"/>
						<polygon style="fill:#FFFFFF;" points="1230.213,2330.515 990.237,2339.421 990.176,2299.971 1230.153,2291.767 						"/>
						<polygon style="fill:#FFFFFF;" points="928.167,2341.725 973.365,2340.048 973.304,2300.547 928.106,2302.092 						"/>
						<polygon style="fill:#FFFFFF;" points="1230.299,2386.215 990.324,2396.132 990.263,2356.681 1230.24,2347.467 						"/>
						<polygon style="fill:#FFFFFF;" points="928.255,2398.697 973.453,2396.829 973.392,2357.329 928.194,2359.064 						"/>
						<polygon style="fill:#FFFFFF;" points="1230.126,2274.092 990.148,2281.974 990.087,2242.523 1230.066,2235.344 						"/>
						<polygon style="fill:#FFFFFF;" points="928.078,2284.013 973.276,2282.529 973.215,2243.028 928.016,2244.381 						"/>
						<polygon style="fill:#FFFFFF;" points="1230.736,2669.067 811.491,2695.361 811.43,2655.384 1230.677,2630.32 						"/>
						<polygon style="fill:#FFFFFF;" points="1230.83,2729.611 990.865,2745.759 990.804,2706.308 1230.77,2690.863 						"/>
						<polygon style="fill:#FFFFFF;" points="928.798,2749.936 973.994,2746.894 973.933,2707.394 928.737,2710.303 						"/>
						<polygon style="fill:#FFFFFF;" points="1230.916,2785.311 990.952,2802.47 990.891,2763.019 1230.856,2746.563 						"/>
						<polygon style="fill:#FFFFFF;" points="928.886,2806.908 974.082,2803.676 974.021,2764.176 928.825,2767.275 						"/>
						<polygon style="fill:#FFFFFF;" points="1231.002,2841.011 991.04,2859.18 990.979,2819.729 1230.942,2802.263 						"/>
						<polygon style="fill:#FFFFFF;" points="928.974,2863.88 974.169,2860.458 974.108,2820.957 928.913,2824.247 						"/>
						<polygon style="fill:#FFFFFF;" points="1281.949,2837.346 1272.715,2838.045 1271.165,1835.394 1280.4,1835.397 						"/>
					</g>
					<path style="fill:#FFFFFF;" d="M1508.959,1727.225c0,11.542-8.585,20.925-19.187,20.959
						c-10.615,0.034-19.229-9.316-19.229-20.884c0-11.568,8.614-20.952,19.229-20.96
						C1500.374,1706.332,1508.959,1715.682,1508.959,1727.225z"/>
					<path style="opacity:0.48;fill:#FFFFFF;" d="M616.016,3043.694l1659.613-122.171l8.445-0.622
						c11.283-0.831,21.542-6.408,29.378-14.869c-119.427-6.536-193.606-48.917-241.457-92.709
						c-96.094-87.945-79.426-174.671-183.053-232.493c-129.25-72.121-230.879,19.265-328.959-70.901
						c-59.461-54.666-30.268-95.429-103.435-177.119c-81.038-90.479-133.798-60.065-215.24-141.496
						c-102.976-102.965-51.474-183.074-140.176-256.999c-107.608-89.683-223.658-6.676-326.093-92.684
						c-44.181-37.095-68.424-91.026-81.082-148.381h-77.936c-29.849,0-54.119,25.135-54.119,56.139v1242.151
						C561.904,3022.54,586.169,3045.886,616.016,3043.694z"/>
				</g>
				
					<linearGradient id="SVGID_00000150098952695745492280000013167402543027761046_" gradientUnits="userSpaceOnUse" x1="598.8264" y1="3047.8223" x2="3223.2803" y2="3047.8223">
					<stop  offset="0.494" style="stop-color:#EBEFF2"/>
					<stop  offset="1" style="stop-color:#FFFFFF"/>
				</linearGradient>
				<path style="fill:url(#SVGID_00000150098952695745492280000013167402543027761046_);" d="M2362.666,2914.09l-1763.84,129.25
					l769.067,136.975c8.807,1.568,17.739,1.985,26.626,1.241l1828.761-153.089l-832.557-113.499
					C2381.413,2913.699,2372.022,2913.405,2362.666,2914.09z"/>
				<polygon style="fill:#D8DEE8;" points="856.198,3044.452 2324.647,2935.244 2779.119,2996.701 1323.32,3113.44 				"/>
			</g>
		</g>
		<g>
			
				<linearGradient id="SVGID_00000146484685168495366990000006096410869654475449_" gradientUnits="userSpaceOnUse" x1="2337.4004" y1="572.9084" x2="691.4519" y2="3864.7983">
				<stop  offset="0.0036" style="stop-color:#E38DDD"/>
				<stop  offset="1" style="stop-color:#9571F6"/>
			</linearGradient>
			<path style="fill:url(#SVGID_00000146484685168495366990000006096410869654475449_);" d="M2536.469,958.867l-1518.745-49.908
				c-50.928-1.674-92.388,38.501-92.388,89.74v1480.242c0,51.239,41.459,91.006,92.388,88.832l1518.746-64.851
				c43.928-1.876,79.401-41.742,79.401-89.052V1047.139C2615.871,999.829,2580.398,960.311,2536.469,958.867z"/>
			<path style="opacity:0.74;fill:#FFFFFF;" d="M1017.724,2538.273c-34.641,1.433-62.804-25.639-62.804-60.471V999.548
				c0-34.831,28.162-62.18,62.803-61.088l1518.746,47.867c29.923,0.943,54.116,27.844,54.116,60.088v1368.428
				c0,32.244-24.193,59.383-54.115,60.62L1017.724,2538.273z"/>
			
				<linearGradient id="SVGID_00000145018800879510524930000002357795860767348153_" gradientUnits="userSpaceOnUse" x1="1625.5236" y1="470.1027" x2="1911.5129" y2="1614.0636">
				<stop  offset="0.0036" style="stop-color:#E38DDD"/>
				<stop  offset="1" style="stop-color:#9571F6"/>
			</linearGradient>
			<path style="fill:url(#SVGID_00000145018800879510524930000002357795860767348153_);" d="M2536.469,958.867l-1518.746-49.908
				c-50.928-1.674-92.388,38.501-92.388,89.741v66.553l1690.536,43.335v-61.449C2615.872,999.828,2580.399,960.311,2536.469,958.867
				z"/>
			<path style="fill:#FFFFFF;" d="M1089.602,994.485c0,16.645-13.401,29.767-29.955,29.309
				c-16.579-0.459-30.037-14.362-30.037-31.052c0-16.691,13.458-29.811,30.037-29.307
				C1076.201,963.939,1089.602,977.841,1089.602,994.485z"/>
			<path style="fill:#FFFFFF;" d="M1194.163,997.524c0,16.565-13.273,29.627-29.669,29.173c-16.42-0.454-29.75-14.289-29.75-30.9
				c0-16.61,13.33-29.67,29.75-29.171C1180.89,967.126,1194.163,980.959,1194.163,997.524z"/>
			<path style="fill:#FFFFFF;" d="M1297.729,1000.534c0,16.487-13.147,29.488-29.387,29.038
				c-16.264-0.45-29.467-14.217-29.467-30.748c0-16.531,13.203-29.531,29.467-29.036
				C1284.582,970.282,1297.729,984.047,1297.729,1000.534z"/>
			<g>
				<polygon style="fill:#FFFFFF;" points="1835.217,1250.463 1033.026,1236.045 1033.026,1283.211 1835.217,1295.905 				"/>
				<polygon style="fill:#FFFFFF;" points="2438.324,1261.304 2438.324,1305.449 2523.194,1306.792 2523.194,1262.829 				"/>
			</g>
			<g>
				<polygon style="fill:#FFFFFF;" points="1202.62,1398.586 1033.026,1396.78 1033.026,1348.142 1202.62,1350.324 				"/>
				<polygon style="fill:#FFFFFF;" points="2108.635,1408.233 1310.889,1399.739 1310.889,1351.717 2108.635,1361.98 				"/>
				<polygon style="fill:#FFFFFF;" points="1476.23,1482.903 1310.889,1481.769 1310.889,1433.746 1476.23,1435.247 				"/>
				<polygon style="fill:#FFFFFF;" points="2360.074,1488.966 1581.801,1483.627 1581.801,1436.206 2360.074,1443.27 				"/>
				<polygon style="fill:#FFFFFF;" points="1476.23,1564.307 1310.889,1563.798 1310.889,1515.776 1476.23,1516.651 				"/>
				<polygon style="fill:#FFFFFF;" points="2360.074,1567.023 1581.801,1564.631 1581.801,1517.209 2360.074,1521.327 				"/>
				<polygon style="fill:#FFFFFF;" points="1202.62,1645.906 1033.026,1646.027 1033.026,1597.388 1202.62,1597.643 				"/>
				<polygon style="fill:#FFFFFF;" points="2108.635,1645.259 1310.889,1645.828 1310.889,1597.806 2108.635,1599.005 				"/>
				<polygon style="fill:#FFFFFF;" points="1476.23,1727.113 1310.889,1727.858 1310.889,1679.836 1476.23,1679.458 				"/>
				<polygon style="fill:#FFFFFF;" points="2360.074,1723.135 1581.801,1726.638 1581.801,1679.217 2360.074,1677.439 				"/>
				<polygon style="fill:#FFFFFF;" points="1476.23,1808.517 1310.889,1809.887 1310.889,1761.865 1476.23,1760.861 				"/>
				<polygon style="fill:#FFFFFF;" points="2360.074,1801.191 1581.801,1807.642 1581.801,1760.22 2360.074,1755.495 				"/>
				<polygon style="fill:#FFFFFF;" points="1476.23,1889.921 1310.889,1891.917 1310.889,1843.895 1476.23,1842.265 				"/>
				<polygon style="fill:#FFFFFF;" points="2360.074,1879.248 1581.801,1888.646 1581.801,1841.224 2360.074,1833.552 				"/>
				<polygon style="fill:#FFFFFF;" points="1745.554,1967.052 1584.346,1969.609 1584.346,1922.193 1745.554,1919.993 				"/>
				<polygon style="fill:#FFFFFF;" points="2480.847,1955.388 1848.503,1965.419 1848.503,1918.589 2480.847,1909.96 				"/>
				<polygon style="fill:#FFFFFF;" points="1202.62,2058.104 1033.026,2061.436 1033.026,2012.798 1202.62,2009.842 				"/>
				<polygon style="fill:#FFFFFF;" points="2108.635,2040.301 1310.889,2055.976 1310.889,2007.954 2108.635,1994.047 				"/>
				<polygon style="fill:#FFFFFF;" points="1476.23,2134.131 1310.889,2138.006 1310.889,2089.984 1476.23,2086.475 				"/>
				<polygon style="fill:#FFFFFF;" points="2360.074,2113.416 1581.801,2131.656 1581.801,2084.235 2360.074,2067.72 				"/>
				<polygon style="fill:#FFFFFF;" points="1476.23,2215.534 1310.889,2220.036 1310.889,2172.013 1476.23,2167.879 				"/>
				<polygon style="fill:#FFFFFF;" points="2360.074,2191.472 1581.801,2212.66 1581.801,2165.239 2360.074,2145.776 				"/>
				<polygon style="fill:#FFFFFF;" points="1202.62,2305.423 1033.026,2310.682 1033.026,2262.044 1202.62,2257.161 				"/>
				<polygon style="fill:#FFFFFF;" points="2108.635,2277.326 1310.889,2302.065 1310.889,2254.043 2108.635,2231.073 				"/>
				<polygon style="fill:#FFFFFF;" points="1476.23,2378.341 1310.889,2384.095 1310.889,2336.073 1476.23,2330.686 				"/>
				<polygon style="fill:#FFFFFF;" points="2360.074,2347.585 1581.801,2374.667 1581.801,2327.246 2360.074,2301.889 				"/>
			</g>
			<g style="opacity:0.5;">
				<path style="fill:#FFFFFF;" d="M1946.123,1527.916c-177.387-258.117-484.423-175.993-678.655-461.184
					c-35.029-51.433-58.797-103.767-75.1-152.033l-174.644-5.739c-50.929-1.673-92.388,38.502-92.388,89.741v1480.241
					c0,51.239,41.459,91.006,92.388,88.832l1463.123-62.476c-33.518-48.34-325.448-227.394-400.862-502.307
					C2011.018,1751.578,2053.146,1683.645,1946.123,1527.916z"/>
			</g>
		</g>
		<g>
			
				<linearGradient id="SVGID_00000112596910413739866160000015714560603866618503_" gradientUnits="userSpaceOnUse" x1="2153.8364" y1="1276.7654" x2="2598.4216" y2="2168.9409">
				<stop  offset="0" style="stop-color:#311944"/>
				<stop  offset="1" style="stop-color:#893976"/>
			</linearGradient>
			<path style="fill:url(#SVGID_00000112596910413739866160000015714560603866618503_);" d="M2854.857,2078.852
				c0-154.173-142.212-274.53-311.595-269.022c-96.461,3.137-180.386,46.622-232.79,110.815c-0.007-0.019-0.013-0.037-0.02-0.056
				c-0.325,0.399-0.628,0.814-0.952,1.214c-0.906,1.123-1.781,2.267-2.668,3.403c-1.618,2.071-3.213,4.156-4.768,6.268
				c-0.917,1.248-1.822,2.504-2.718,3.767c-1.495,2.108-2.952,4.238-4.384,6.384c-0.818,1.229-1.646,2.451-2.443,3.692
				c-1.595,2.48-3.131,4.993-4.638,7.521c-0.547,0.915-1.121,1.814-1.655,2.735c-1.989,3.427-3.896,6.897-5.723,10.406
				c-0.485,0.931-0.927,1.882-1.401,2.819c-1.329,2.634-2.628,5.28-3.866,7.958c-0.607,1.313-1.18,2.639-1.765,3.961
				c-1.046,2.369-2.06,4.751-3.032,7.152c-0.564,1.394-1.119,2.792-1.659,4.196c-0.946,2.464-1.843,4.947-2.711,7.443
				c-0.454,1.305-0.924,2.604-1.357,3.917c-1.034,3.14-1.995,6.307-2.904,9.494c-0.189,0.665-0.408,1.319-0.592,1.986
				c-1.06,3.844-2.019,7.724-2.893,11.631c-0.258,1.15-0.469,2.314-0.71,3.469c-0.585,2.802-1.138,5.612-1.627,8.444
				c-0.247,1.442-0.466,2.891-0.688,4.34c-0.403,2.62-0.764,5.25-1.081,7.893c-0.179,1.483-0.353,2.965-0.504,4.455
				c-0.283,2.787-0.501,5.59-0.689,8.4c-0.087,1.308-0.198,2.609-0.266,3.922c-0.208,4.107-0.337,8.232-0.337,12.387
				c0,98.934,59.919,186.203,149.748,232.929c8.261,4.297,16.78,8.255,25.533,11.851c4.383,1.801,8.825,3.51,13.324,5.126
				c31.62,11.36,66.038,18.093,102.235,19.15l0,0l0,0h0.002c4.988,0.146,9.948,0.169,14.886,0.098
				c1.667-0.024,3.315-0.117,4.977-0.165c3.265-0.095,6.532-0.192,9.775-0.38c1.982-0.115,3.943-0.294,5.916-0.443
				c2.896-0.219,5.792-0.439,8.666-0.731c2.105-0.214,4.193-0.481,6.286-0.734c2.717-0.329,5.433-0.666,8.129-1.059
				c2.153-0.314,4.289-0.668,6.428-1.024c2.609-0.434,5.211-0.885,7.797-1.378c2.165-0.413,4.319-0.853,6.466-1.307
				c2.531-0.536,5.05-1.1,7.558-1.693c2.151-0.508,4.295-1.03,6.427-1.58c2.48-0.64,4.939-1.318,7.394-2.013
				c2.112-0.598,4.222-1.196,6.313-1.834c0.772-0.235,1.563-0.436,2.332-0.677c-0.018-0.019-0.034-0.038-0.051-0.056
				C2769.752,2297.222,2854.857,2197.711,2854.857,2078.852z"/>
			<g>
				
					<linearGradient id="SVGID_00000159469561392908123960000016387497345978280856_" gradientUnits="userSpaceOnUse" x1="2415.2834" y1="1862.7743" x2="2847.1118" y2="2663.688">
					<stop  offset="0" style="stop-color:#FF9085"/>
					<stop  offset="1" style="stop-color:#FB6FBB"/>
				</linearGradient>
				<path style="fill:url(#SVGID_00000159469561392908123960000016387497345978280856_);" d="M2831.582,2078.89
					c0,153.776-141.487,274.303-310.022,269.38c-162.256-4.74-289.421-124.831-289.421-268.389
					c0-143.558,127.165-264.069,289.421-269.345C2690.095,1805.055,2831.582,1925.114,2831.582,2078.89z"/>
				<g>
					<path style="fill:#FFFFFF;" d="M2445.522,2153.371l-120.318-61.232v-19.72l120.318-69.67v33.565l-83.238,44.46l83.238,39.172
						V2153.371z"/>
					<path style="fill:#FFFFFF;" d="M2573.514,1975.568l-68.43,206.799l-34.373-0.35l67.888-205.978L2573.514,1975.568z"/>
					<path style="fill:#FFFFFF;" d="M2598.949,2120.411l87.933-40.131l-87.933-44.987v-34.161l128.237,70.278v20.651
						l-128.237,62.369V2120.411z"/>
				</g>
				<g style="opacity:0.3;">
					
						<linearGradient id="SVGID_00000109738518999487166810000004635841648746875833_" gradientUnits="userSpaceOnUse" x1="2296.6936" y1="1916.0005" x2="2716.2029" y2="2757.8545">
						<stop  offset="0" style="stop-color:#FF9085"/>
						<stop  offset="1" style="stop-color:#FB6FBB"/>
					</linearGradient>
					<path style="fill:url(#SVGID_00000109738518999487166810000004635841648746875833_);" d="M2594.856,2281.35
						c-36.572-80.515,0.402-154.916-48.977-206.557c-49.6-51.872-113.218-3.384-180.653-44.892
						c-25.789-15.874-54.281-46.246-75.336-108.892c-36.321,44.588-57.752,99.574-57.752,158.872
						c0,143.558,127.165,263.649,289.421,268.389c38.042,1.111,74.744-4.192,108.805-14.892
						C2613.536,2315.84,2602.431,2298.026,2594.856,2281.35z"/>
				</g>
			</g>
		</g>
		<g>
			
				<linearGradient id="SVGID_00000006698839270033977290000006121035436362657964_" gradientUnits="userSpaceOnUse" x1="6951.418" y1="1431.3468" x2="6632.7192" y2="2959.3489" gradientTransform="matrix(1 0 0 1 -5492.7432 0)">
				<stop  offset="0" style="stop-color:#AA80F9"/>
				<stop  offset="0.9964" style="stop-color:#6165D7"/>
			</linearGradient>
			<path style="fill:url(#SVGID_00000006698839270033977290000006121035436362657964_);" d="M1529.813,1869.408
				c27.727-29.603-49.031-140.819-90.115-189.551c-35.891-42.574-72.781-86.333-118.081-80.792
				c-39.773,4.864-78.474,46.808-80.792,87.007C1234.587,1794.215,1490.396,1911.494,1529.813,1869.408z"/>
			
				<linearGradient id="SVGID_00000005975168714455879330000016822780039703811722_" gradientUnits="userSpaceOnUse" x1="-4481.6763" y1="3193.8101" x2="-4386.2319" y2="3193.8101" gradientTransform="matrix(-0.9996 0.0289 0.0289 0.9996 -3287.0679 -31.2392)">
				<stop  offset="0" style="stop-color:#444B8C"/>
				<stop  offset="0.9964" style="stop-color:#26264F"/>
			</linearGradient>
			<path style="fill:url(#SVGID_00000005975168714455879330000016822780039703811722_);" d="M1196.902,3012.248
				c-5.219,4.242-6.179,14.837-6.806,21.763c-0.282,3.094-0.421,4.641-0.076,5.733c2.522,7.97,17.98,8.809,42.219,11.286
				c38.306,3.914,49.705,6.928,52.703,1.228c2.81-5.342-3.989-14.089-4.755-15.053c-4.116-5.185-9.168-7.071-18.935-10.285
				c-18.072-5.949-30.283-9.206-33.98-10.192C1204.187,3010.564,1200.33,3009.462,1196.902,3012.248z"/>
			
				<linearGradient id="SVGID_00000031924851786472257720000010178596648796426391_" gradientUnits="userSpaceOnUse" x1="-226.0983" y1="3001.6543" x2="-191.8804" y2="3001.6543" gradientTransform="matrix(-1 0 0 1 997.4183 0)">
				<stop  offset="0" style="stop-color:#FFC444"/>
				<stop  offset="0.9964" style="stop-color:#F36F56"/>
			</linearGradient>
			<path style="fill:url(#SVGID_00000031924851786472257720000010178596648796426391_);" d="M1219.683,2977.253l3.833,43.651
				c-1.088,2.108-14.063,8.431-24.369,3.009l-9.849-42.907L1219.683,2977.253z"/>
			
				<linearGradient id="SVGID_00000070810572081466937720000004333917966678650781_" gradientUnits="userSpaceOnUse" x1="-3841.0857" y1="4493.5596" x2="-3739.6816" y2="4493.5596" gradientTransform="matrix(-0.9642 0.2651 0.2651 0.9642 -3299.8931 -308.9189)">
				<stop  offset="0" style="stop-color:#444B8C"/>
				<stop  offset="0.9964" style="stop-color:#26264F"/>
			</linearGradient>
			<path style="fill:url(#SVGID_00000070810572081466937720000004333917966678650781_);" d="M1500.693,3006.638
				c-6.255,6.908-7.68,19.629-2.242,25.896c5.347,6.161,13.387,1.54,36.189,2.221c24.425,0.73,30.803,6.499,47.401,1.919
				c6.705-1.854,18.548-6.349,18.324-11.138c-0.158-3.367-6.187-5.106-26.325-11.853c-28.585-9.575-28.459-10.098-34.529-11.104
				C1524.264,3000.053,1508.955,2997.517,1500.693,3006.638z"/>
			
				<linearGradient id="SVGID_00000096754869823194139150000013403183618952979593_" gradientUnits="userSpaceOnUse" x1="-531.1748" y1="2990.3572" x2="-488.9128" y2="2990.3572" gradientTransform="matrix(-1 0 0 1 997.4183 0)">
				<stop  offset="0" style="stop-color:#FFC444"/>
				<stop  offset="0.9964" style="stop-color:#F36F56"/>
			</linearGradient>
			<path style="fill:url(#SVGID_00000096754869823194139150000013403183618952979593_);" d="M1516.343,2966.801l12.251,40.75
				c-0.926,2.186-13.38,9.478-24.068,4.859l-18.194-39.552L1516.343,2966.801z"/>
			<path style="fill:#26264F;" d="M1407.494,2074.308c1.755,136.952,11.1,290.938,33.525,458.235
				c22.162,165.347,53.22,314.746,87.099,446.121c-15.63,4.205-31.26,8.41-46.89,12.616
				c-39.655-36.975-89.678-95.181-113.816-177.435c-14.981-51.052-9.988-77.285-19.491-140.078
				c-15.13-99.98-45.778-152.36-77.454-232.984c-28.465-72.448-62.111-178.773-80.152-320.896
				C1262.709,2104.695,1335.102,2089.5,1407.494,2074.308z"/>
			<path style="fill:#26264F;" d="M1266.405,2061.24c-9.567,174.18-17.435,351.601-23.397,532.166
				c-4.475,135.495-7.761,269.272-9.945,401.288c-15.965,1.971-31.932,3.943-47.899,5.913
				c-15.427-28.723-35.918-72.637-49.955-128.922c-17.049-68.359-13.101-108.955-20.578-179.803
				c-8.389-79.463-20.574-96.775-42.159-197.016c-43.811-203.436-65.717-305.155-16.845-368.429
				C1071.492,2105.895,1121.226,2054.367,1266.405,2061.24z"/>
			
				<linearGradient id="SVGID_00000075854981603130615580000012975334719611063219_" gradientUnits="userSpaceOnUse" x1="6841.0679" y1="1408.3304" x2="6522.3701" y2="2936.3296" gradientTransform="matrix(1 0 0 1 -5492.7432 0)">
				<stop  offset="0" style="stop-color:#AA80F9"/>
				<stop  offset="0.9964" style="stop-color:#6165D7"/>
			</linearGradient>
			<path style="fill:url(#SVGID_00000075854981603130615580000012975334719611063219_);" d="M1033.715,1623.478
				c37.391-10.514,92.189-22.811,159.3-26.604c95.718-5.41,143.578-8.115,177.492,14.679c78.33,52.646,17.687,174.154,49.75,475.36
				c4.579,43.014,5.606,86.335,8.922,129.465c5.491,71.411,6.741,75.288,1.772,82.525c-31.159,45.377-147.409-23.067-317.797,3.988
				c-95.336,15.138-138.574,50.014-164.692,24.859c-30.46-29.335-4.332-108.238,18.159-176.161
				c25.817-77.966,41.765-78.969,56.419-137.687c15.317-61.372,6.052-92.972,3.667-189.752
				C1025.566,1777.842,1025.808,1708.926,1033.715,1623.478z"/>
			<g>
				
					<linearGradient id="SVGID_00000115486244766878658820000006810387763168319384_" gradientUnits="userSpaceOnUse" x1="6566.9897" y1="2715.1309" x2="6687.9429" y2="2140.6057" gradientTransform="matrix(1 0 0 1 -5492.7432 0)">
					<stop  offset="0" style="stop-color:#AA80F9"/>
					<stop  offset="0.9964" style="stop-color:#6165D7"/>
				</linearGradient>
				<path style="fill:url(#SVGID_00000115486244766878658820000006810387763168319384_);" d="M1265.417,2188.953
					c-44.534-3.485-73.425,21.693-111.867,2.072c-52.714-26.906-69.651-110.621-66.292-169.871
					c5.104-90.023,56.508-113.752,47.647-171.943c-4.792-31.469-27.26-73.249-107.928-115.934
					c-1.076,35.925-0.871,66.547-0.272,90.874c2.385,96.78,11.65,128.38-3.667,189.752c-14.654,58.717-30.602,59.721-56.419,137.687
					c-22.491,67.923-48.618,146.826-18.159,176.161c26.119,25.155,69.357-9.721,164.692-24.859
					c146.816-23.312,253.378,24.218,300.002,8.803C1356.817,2218.594,1305.716,2192.106,1265.417,2188.953z"/>
			</g>
			
				<linearGradient id="SVGID_00000121990967086952043340000003267881468941053348_" gradientUnits="userSpaceOnUse" x1="6622.7476" y1="1362.7953" x2="6304.0493" y2="2890.7952" gradientTransform="matrix(1 0 0 1 -5492.7432 0)">
				<stop  offset="0" style="stop-color:#AA80F9"/>
				<stop  offset="0.9964" style="stop-color:#6165D7"/>
			</linearGradient>
			<path style="fill:url(#SVGID_00000121990967086952043340000003267881468941053348_);" d="M1094.461,1629.658
				c-31.805-26.134-95.759,3.449-112.854,11.356c-95.334,44.098-180.93,162.928-159.722,288.508
				c3.18,18.835,17.93,106.927,92.524,149.611c67.307,38.514,158.191,28.609,231.008-25.94c9.95-8.831,19.904-17.659,29.856-26.49
				c9.79-10.582,19.582-21.165,29.372-31.748c-15.39-12.801-41.539-31.268-78.263-43.119
				c-48.418-15.624-83.668,12.411-106.133-8.903c-15.504-14.709-15.539-40.689-11.71-56.435
				c7.717-31.735,35.691-40.659,59.041-63.184C1122.437,1770.396,1132.543,1660.95,1094.461,1629.658z"/>
			<g>
				
					<linearGradient id="SVGID_00000047022538157726079860000011773348472082808504_" gradientUnits="userSpaceOnUse" x1="6894.4541" y1="2215.8726" x2="6842.8828" y2="2069.7539" gradientTransform="matrix(1 0 0 1 -5492.7432 0)">
					<stop  offset="0" style="stop-color:#311944"/>
					<stop  offset="1" style="stop-color:#893976"/>
				</linearGradient>
				<polygon style="fill:url(#SVGID_00000047022538157726079860000011773348472082808504_);" points="1551.541,2039.622 
					1125.223,2033.258 1238.588,2087.969 1552.631,2067.416 				"/>
				
					<linearGradient id="SVGID_00000060012026431857239420000013656169531282393488_" gradientUnits="userSpaceOnUse" x1="6669.1626" y1="2004.1689" x2="6688.0718" y2="2134.8164" gradientTransform="matrix(1 0 0 1 -5492.7432 0)">
					<stop  offset="0" style="stop-color:#311944"/>
					<stop  offset="1" style="stop-color:#893976"/>
				</linearGradient>
				<path style="fill:url(#SVGID_00000060012026431857239420000013656169531282393488_);" d="M1110.178,2044.587v0.002
					c0,7.978,4.992,15.104,12.49,17.831l136.223,53.404l0.621-37.024l-134.288-45.542
					C1117.687,2031.092,1110.178,2036.748,1110.178,2044.587z"/>
			</g>
			
				<linearGradient id="SVGID_00000163760344578824997160000007093348421114162850_" gradientUnits="userSpaceOnUse" x1="-284.9815" y1="2024.6769" x2="-178.1102" y2="2024.6769" gradientTransform="matrix(-1 0 0 1 997.4183 0)">
				<stop  offset="0" style="stop-color:#FFC444"/>
				<stop  offset="0.9964" style="stop-color:#F36F56"/>
			</linearGradient>
			<path style="fill:url(#SVGID_00000163760344578824997160000007093348421114162850_);" d="M1175.823,2019.362
				c-2.616-0.584,12.746-31.195,24.808-27.663c12.058,3.533,71.046,37.719,76.407,51.795c5.362,14.075,5.362,14.075,5.362,14.075
				s-25.731,2.011-41.688-3.35C1224.754,2048.856,1197.099,2024.106,1175.823,2019.362z"/>
			<g>
				
					<linearGradient id="SVGID_00000051361427657084740450000002339373994166729105_" gradientUnits="userSpaceOnUse" x1="-204.5082" y1="1563.9336" x2="-208.2958" y2="1827.1871" gradientTransform="matrix(-1 0 0 1 997.4183 0)">
					<stop  offset="0" style="stop-color:#FFC444"/>
					<stop  offset="0.9964" style="stop-color:#F36F56"/>
				</linearGradient>
				<path style="fill:url(#SVGID_00000051361427657084740450000002339373994166729105_);" d="M1200.162,1492.298
					c0.238,28.377-2.928,50.882-5.923,66.294c-3.43,17.659-5.903,22.22-9.058,25.922c-4.749,5.572-11.946,10.246-52.609,20.33
					c-22.128,5.485-24.974,5.336-25.464,7.532c-2.383,10.712,57.955,47.221,120.293,38.422
					c38.152-5.385,72.864-27.151,70.734-38.581c-2.145-11.503-40.254-5.331-51.612-26.141c-7.902-14.477,0.956-35.03,11.425-52.051
					C1247.807,1515.024,1210.301,1511.297,1200.162,1492.298z"/>
				<g>
					<path style="fill:#26264F;" d="M1270.973,1503.517c9.004-11.961,9.559-32.842-0.815-46.041
						c-8.928-11.358-22.978-12.977-31.389-13.95c-24.374-2.814-55.127,7.361-65.824,29.794c-6.338,13.294,7.373,40.917,9.519,45.883
						c2.432,5.615,6.839,7.541,10.918,11.787c5.651,5.888,14.499,15.25,28.94,30.908c1.122-4.62,2.829-10.34,5.539-16.539
						c1.043-2.387,5.234-11.706,11.574-19.434C1252.137,1510.432,1262.437,1514.852,1270.973,1503.517z"/>
					
						<linearGradient id="SVGID_00000098191212713307091740000007959333869351073706_" gradientUnits="userSpaceOnUse" x1="-234.1551" y1="1505.0017" x2="-219.6856" y2="1645.4949" gradientTransform="matrix(-1 0 0 1 997.4183 0)">
						<stop  offset="0" style="stop-color:#FFC444"/>
						<stop  offset="0.9964" style="stop-color:#F36F56"/>
					</linearGradient>
					<path style="fill:url(#SVGID_00000098191212713307091740000007959333869351073706_);" d="M1201.722,1548.73
						c0,0,16.023,26.287,47.926,24.212c28.563-1.86,32.747-65.915,14.503-79.507c-6.087-4.534-18.277-6.417-28.188-3.64
						c-5.854,1.641-7.837,4.073-17.454,6.567c-8.872,2.303-11.377,1.319-14.055,3.571c-3.349,2.82-5.803,9.731-0.209,28.456
						c-5.45-5.517-11.991-7.635-16.626-5.447c-0.738,0.351-2.7,1.684-3.804,3.706
						C1179.819,1533.964,1186.502,1543.308,1201.722,1548.73z"/>
					<path style="fill:#26264F;" d="M1203.161,1496.101c1.377,1.027-2.834,6.167-3.147,13.44
						c-0.612,14.119,13.681,31.068,28.26,32.505c8.62,0.849,10.989-4.346,25.239-5.852c8.822-0.932,16.166,0.19,20.786,1.2
						c4.478,15.486,0.264,30.925-10.086,38.088c-11.143,7.712-25.378,3.034-31.329,1.077c-3.981-1.309-16.739-5.476-23.407-17.175
						c-6.947-12.192-0.129-19.541-8.099-27.786c-4.02-4.16-9.301-5.961-14.441-14.013c-1.396-2.188-2.327-4.123-2.897-5.425
						C1191.407,1504.35,1201.166,1494.614,1203.161,1496.101z"/>
					<path style="fill:#FFFFFF;" d="M1248.282,1550.232c0,0,6.169-3.223,16.829-2.624c0.518,0.03,1.091-0.123,1.157-0.391
						c0.245-1.011-6.594-5.545-12.896-3.775c-4.474,1.259-7.955,5.494-7.353,6.573
						C1246.274,1550.469,1247.286,1550.409,1248.282,1550.232z"/>
				</g>
			</g>
			<g>
				<g>
					
						<linearGradient id="SVGID_00000114072499667190400010000013492402312069405578_" gradientUnits="userSpaceOnUse" x1="7043.8447" y1="2015.6117" x2="6943.2993" y2="1872.8375" gradientTransform="matrix(1 0 0 1 -5492.7432 0)">
						<stop  offset="0" style="stop-color:#444B8C"/>
						<stop  offset="0.9964" style="stop-color:#26264F"/>
					</linearGradient>
					<path style="fill:url(#SVGID_00000114072499667190400010000013492402312069405578_);" d="M1270.821,1819.028l-30.051,273.609
						c-1.037,9.441,12.18,23.506,21.667,23.057l440.835-27.063c7.244-0.344,13.276-5.675,14.502-12.823l55.331-264.259
						c1.651-9.616-15.636-19.549-25.39-19.276l-461.968,12.99C1278.033,1805.482,1271.662,1811.355,1270.821,1819.028z"/>
					
						<linearGradient id="SVGID_00000125587049306604408290000007794656814168637611_" gradientUnits="userSpaceOnUse" x1="6850.981" y1="2251.9006" x2="7071.019" y2="1804.9479" gradientTransform="matrix(1 0 0 1 -5492.7432 0)">
						<stop  offset="0" style="stop-color:#311944"/>
						<stop  offset="1" style="stop-color:#893976"/>
					</linearGradient>
					<path style="fill:url(#SVGID_00000125587049306604408290000007794656814168637611_);" d="M1280.896,1827.005l-30.051,273.612
						c-1.036,9.441,6.607,17.574,16.094,17.127l446.411-21.134c7.243-0.344,13.274-5.675,14.501-12.822l45.608-265.467
						c1.652-9.619-5.912-18.342-15.666-18.067l-461.969,12.99C1288.11,1813.458,1281.736,1819.334,1280.896,1827.005z"/>
				</g>
				
					<linearGradient id="SVGID_00000034077618287393994140000013113780171161154232_" gradientUnits="userSpaceOnUse" x1="6743.4941" y1="1965.0315" x2="7226.8877" y2="1965.0315" gradientTransform="matrix(1 0 0 1 -5492.7432 0)">
					<stop  offset="0" style="stop-color:#311944"/>
					<stop  offset="1" style="stop-color:#893976"/>
				</linearGradient>
				<path style="opacity:0.3;fill:url(#SVGID_00000034077618287393994140000013113780171161154232_);" d="M1543.028,2032.495
					c-38.979-16.521-25.221-48.025-71.25-87.282c-60.723-51.789-122.616-29.329-144.284-69.47
					c-6.747-12.503-9.97-31.956,1.783-63.441l-33.453,0.941c-7.714,0.215-14.087,6.091-14.928,13.762l-30.051,273.612
					c-1.035,9.439,6.609,17.574,16.094,17.127l446.411-21.134c7.243-0.344,13.274-5.674,14.501-12.822l6.294-36.632
					c-13.545-7.538-29.73-14.391-48.616-18.223C1620.036,2015.649,1587.904,2051.515,1543.028,2032.495z"/>
			</g>
			
				<linearGradient id="SVGID_00000070109913870931688380000001282402789125554316_" gradientUnits="userSpaceOnUse" x1="-744.2354" y1="2079.3442" x2="-672.137" y2="2079.3442" gradientTransform="matrix(-1 0 0 1 997.4183 0)">
				<stop  offset="0" style="stop-color:#FFC444"/>
				<stop  offset="0.9964" style="stop-color:#F36F56"/>
			</linearGradient>
			<path style="fill:url(#SVGID_00000070109913870931688380000001282402789125554316_);" d="M1741.473,2058.34
				c0.726-2.204-0.813-4.475-3.131-4.593c-9.435-0.481-31.317-0.677-43.397,6.721c-15.693,9.612-35.984,27.153-18.896,36.003
				l15.956,8.266c0.733,0.38,1.531,0.498,2.335,0.322c5.67-1.247,29.533-6.541,32.143-7.855
				C1728.858,2096.008,1737.957,2069.007,1741.473,2058.34z"/>
		</g>
		<g>
			
				<linearGradient id="SVGID_00000055702742702379817530000012886663990158292922_" gradientUnits="userSpaceOnUse" x1="1920.1965" y1="-163.4422" x2="2653.2473" y2="1307.6147">
				<stop  offset="0" style="stop-color:#FFC444"/>
				<stop  offset="0.9964" style="stop-color:#F36F56"/>
			</linearGradient>
			<path style="fill:url(#SVGID_00000055702742702379817530000012886663990158292922_);" d="M3076.07,1159.072
				c0-254.206-234.484-452.656-513.771-443.574c-159.05,5.172-297.429,76.872-383.834,182.717c-0.011-0.032-0.021-0.061-0.032-0.092
				c-0.536,0.658-1.037,1.342-1.57,2.002c-1.494,1.852-2.936,3.738-4.4,5.61c-2.668,3.415-5.298,6.852-7.862,10.335
				c-1.513,2.058-3.004,4.129-4.481,6.211c-2.465,3.475-4.867,6.987-7.228,10.525c-1.349,2.026-2.714,4.042-4.028,6.088
				c-2.63,4.089-5.162,8.233-7.648,12.401c-0.902,1.509-1.848,2.991-2.729,4.51c-3.279,5.651-6.425,11.371-9.436,17.158
				c-0.799,1.535-1.529,3.103-2.309,4.647c-2.191,4.343-4.334,8.706-6.374,13.121c-1.001,2.164-1.946,4.351-2.91,6.532
				c-1.724,3.907-3.397,7.834-5,11.793c-0.931,2.299-1.846,4.603-2.736,6.919c-1.56,4.063-3.039,8.157-4.469,12.271
				c-0.749,2.153-1.524,4.293-2.238,6.459c-1.704,5.178-3.289,10.4-4.787,15.654c-0.311,1.097-0.673,2.175-0.977,3.275
				c-1.748,6.338-3.329,12.736-4.77,19.177c-0.426,1.896-0.774,3.815-1.17,5.72c-0.965,4.62-1.877,9.254-2.682,13.923
				c-0.407,2.377-0.768,4.766-1.135,7.156c-0.664,4.319-1.26,8.656-1.783,13.014c-0.295,2.445-0.582,4.89-0.832,7.346
				c-0.468,4.595-0.826,9.216-1.137,13.851c-0.143,2.157-0.327,4.302-0.438,6.467c-0.343,6.772-0.555,13.574-0.555,20.424
				c0,163.126,98.797,307.02,246.911,384.063c13.622,7.085,27.667,13.611,42.1,19.54c7.226,2.969,14.551,5.788,21.97,8.453
				c52.137,18.731,108.886,29.832,168.569,31.576l0,0l0,0c0.003,0,0.003,0,0.003,0c8.223,0.24,16.402,0.278,24.545,0.161
				c2.75-0.039,5.466-0.193,8.206-0.272c5.384-0.157,10.771-0.316,16.117-0.626c3.268-0.19,6.501-0.484,9.755-0.731
				c4.775-0.361,9.55-0.723,14.288-1.206c3.472-0.354,6.913-0.794,10.365-1.211c4.48-0.542,8.958-1.097,13.404-1.747
				c3.549-0.518,7.072-1.102,10.598-1.688c4.302-0.715,8.592-1.458,12.856-2.273c3.569-0.681,7.12-1.406,10.662-2.155
				c4.174-0.884,8.327-1.814,12.463-2.792c3.546-0.838,7.082-1.699,10.597-2.605c4.089-1.055,8.145-2.173,12.191-3.319
				c3.481-0.986,6.962-1.971,10.409-3.024c1.272-0.388,2.578-0.719,3.845-1.117c-0.029-0.031-0.055-0.062-0.085-0.093
				C2935.745,1519.13,3076.07,1355.052,3076.07,1159.072z"/>
			
				<linearGradient id="SVGID_00000071530910826693092110000013358403479016363163_" gradientUnits="userSpaceOnUse" x1="2351.2815" y1="802.7942" x2="3063.2983" y2="2123.3748">
				<stop  offset="0" style="stop-color:#FFC444"/>
				<stop  offset="0.9964" style="stop-color:#F36F56"/>
			</linearGradient>
			<path style="fill:url(#SVGID_00000071530910826693092110000013358403479016363163_);" d="M3037.692,1159.135
				c0,253.552-233.29,452.282-511.177,444.165c-267.535-7.815-477.21-205.827-477.21-442.531
				c0-236.704,209.675-435.409,477.21-444.108C2804.402,707.624,3037.692,905.583,3037.692,1159.135z"/>
			<g>
				<path style="fill:#FFFFFF;" d="M2331.142,1394.863c-16.339-0.282-30.539-2.307-42.616-6.071v-62.571
					c12.387,3.376,23.713,5.126,33.974,5.246c15.893,0.185,27.296-4.844,34.179-15.096c6.892-10.265,10.341-26.391,10.341-48.371
					V933.424l73.4-1.731v336.256c0,41.95-9.287,73.789-27.814,95.463C2394.138,1385.016,2366.942,1395.481,2331.142,1394.863z"/>
				<path style="fill:#FFFFFF;" d="M2798.471,1249.542c0,39.044-14.033,69.663-41.999,91.779
					c-27.833,22.01-66.328,32.609-115.294,31.878c-44.741-0.668-84.033-9.759-117.984-27.18v-83.19
					c27.893,12.893,51.611,22.043,71.1,27.418c19.555,5.393,37.493,8.165,53.798,8.304c19.635,0.167,34.736-3.513,45.289-11.048
					c10.572-7.549,15.854-18.856,15.854-33.932c0-8.408-2.33-15.901-6.987-22.474c-4.654-6.568-11.482-12.884-20.477-18.943
					c-8.981-6.05-27.232-15.7-54.685-28.911c-25.608-12.177-44.735-23.846-57.444-35.008
					c-12.681-11.138-22.806-24.107-30.348-38.913c-7.531-14.786-11.304-32.09-11.304-51.926c0-37.381,12.395-66.979,37.246-88.887
					c24.958-22.002,59.655-33.548,104.225-34.569c22.03-0.505,43.124,1.654,63.271,6.491c20.216,4.854,41.428,11.876,63.668,21.06
					l-29.494,71.692c-22.903-9.095-41.774-15.382-56.652-18.861c-14.84-3.47-29.395-5.095-43.685-4.86
					c-16.934,0.278-29.894,4.471-38.908,12.59c-9,8.106-13.485,18.55-13.485,31.36c0,7.965,1.822,14.869,5.448,20.757
					c3.628,5.892,9.433,11.558,17.38,17.022c7.958,5.472,26.86,15.286,56.812,29.513c39.836,18.953,67.314,38.123,82.218,57.449
					C2790.975,1197.528,2798.471,1221.337,2798.471,1249.542z"/>
			</g>
			<g style="opacity:0.2;">
				
					<linearGradient id="SVGID_00000010278352763012118120000001758819063783991434_" gradientUnits="userSpaceOnUse" x1="2155.7456" y1="890.5556" x2="2847.45" y2="2278.6404">
					<stop  offset="0" style="stop-color:#FFC444"/>
					<stop  offset="0.9964" style="stop-color:#F36F56"/>
				</linearGradient>
				<path style="fill:url(#SVGID_00000010278352763012118120000001758819063783991434_);" d="M2647.368,1492.959
					c-60.301-132.757,0.664-255.432-80.756-340.58c-81.783-85.528-186.678-5.58-297.868-74.02
					c-42.522-26.173-89.501-76.253-124.217-179.546c-59.887,73.519-95.224,164.181-95.224,261.955
					c0,236.704,209.675,434.716,477.21,442.531c62.725,1.832,123.24-6.913,179.403-24.554
					C2678.169,1549.827,2659.858,1520.456,2647.368,1492.959z"/>
			</g>
		</g>
	</g>
</g>
</svg>
